<svg width="21" height="21" viewBox="0 0 21 21" fill="none" xmlns="http://www.w3.org/2000/svg">
<path opacity="0.4" d="M17.5506 7.16632C16.675 3.31364 13.3143 1.5791 10.3623 1.5791C10.3623 1.5791 10.3623 1.5791 10.354 1.5791C7.41024 1.5791 4.04124 3.3053 3.16563 7.15798C2.18995 11.461 4.82512 15.1052 7.21011 17.3984C8.09405 18.249 9.22817 18.6743 10.3623 18.6743C11.4964 18.6743 12.6305 18.249 13.5061 17.3984C15.8911 15.1052 18.5263 11.4693 17.5506 7.16632Z" fill="white"/>
<path d="M10.3623 11.344C11.8131 11.344 12.9891 10.1679 12.9891 8.71716C12.9891 7.2664 11.8131 6.09033 10.3623 6.09033C8.91154 6.09033 7.73547 7.2664 7.73547 8.71716C7.73547 10.1679 8.91154 11.344 10.3623 11.344Z" fill="white"/>
</svg>
