<svg width="51" height="51" viewBox="0 0 51 51" fill="none" xmlns="http://www.w3.org/2000/svg">
<g clip-path="url(#clip0_23_33)">
<path d="M25.8143 50.1285C11.9997 50.1285 0.796936 38.9257 0.796936 25.1111C0.796936 11.2965 11.9997 0.09375 25.8143 0.09375C39.6289 0.09375 50.8317 11.2965 50.8317 25.1111C50.8317 38.9257 39.6289 50.1285 25.8143 50.1285Z" fill="#EE3135"/>
<path d="M25.8143 11.1113C30.3725 11.1113 30.9129 11.1263 32.7141 11.2114C34.3803 11.2864 35.2859 11.5666 35.8863 11.8018C36.6819 12.112 37.2523 12.4823 37.8477 13.0777C38.4431 13.6731 38.8134 14.2435 39.1236 15.039C39.3587 15.6395 39.6339 16.5451 39.714 18.2113C39.794 20.0125 39.8141 20.5529 39.8141 25.111C39.8141 29.6692 39.799 30.2096 39.714 32.0108C39.6389 33.677 39.3587 34.5826 39.1236 35.183C38.8134 35.9786 38.4431 36.549 37.8477 37.1444C37.2523 37.7398 36.6819 38.1101 35.8863 38.4203C35.2859 38.6555 34.3803 38.9307 32.7141 39.0107C30.9129 39.0908 30.3725 39.1108 25.8143 39.1108C21.2562 39.1108 20.7158 39.0958 18.9145 39.0107C17.2484 38.9357 16.3427 38.6555 15.7423 38.4203C14.9468 38.1101 14.3764 37.7398 13.781 37.1444C13.1855 36.549 12.8153 35.9786 12.5051 35.183C12.2699 34.5826 11.9947 33.677 11.9147 32.0108C11.8346 30.2096 11.8146 29.6692 11.8146 25.111C11.8146 20.5529 11.8296 20.0125 11.9147 18.2113C11.9897 16.5451 12.2699 15.6395 12.5051 15.039C12.8153 14.2435 13.1855 13.6731 13.781 13.0777C14.3764 12.4823 14.9468 12.112 15.7423 11.8018C16.3427 11.5666 17.2484 11.2914 18.9145 11.2114C20.7158 11.1263 21.2562 11.1113 25.8143 11.1113ZM25.8143 8.03418C21.1761 8.03418 20.5957 8.05419 18.7744 8.13925C16.9582 8.22431 15.7173 8.50951 14.6265 8.93481C13.5058 9.3651 12.5501 9.95051 11.6044 10.9012C10.6538 11.8518 10.0734 12.8025 9.63308 13.9283C9.21279 15.014 8.92258 16.2549 8.83752 18.0762C8.75247 19.8974 8.73245 20.4778 8.73245 25.1161C8.73245 29.7543 8.75247 30.3347 8.83752 32.1559C8.92258 33.9722 9.20778 35.2131 9.63308 36.3038C10.0684 37.4196 10.6538 38.3753 11.6044 39.3209C12.5551 40.2716 13.5058 40.852 14.6316 41.2923C15.7173 41.7126 16.9582 42.0028 18.7794 42.0878C20.6007 42.1729 21.1811 42.1929 25.8193 42.1929C30.4576 42.1929 31.038 42.1729 32.8592 42.0878C34.6755 42.0028 35.9163 41.7176 37.0071 41.2923C38.1229 40.857 39.0785 40.2716 40.0242 39.3209C40.9749 38.3703 41.5553 37.4196 41.9956 36.2938C42.4159 35.2081 42.7061 33.9672 42.7911 32.1459C42.8762 30.3247 42.8962 29.7443 42.8962 25.106C42.8962 20.4678 42.8762 19.8874 42.7911 18.0662C42.7061 16.2499 42.4209 15.009 41.9956 13.9183C41.5603 12.8025 40.9749 11.8468 40.0242 10.9012C39.0735 9.95051 38.1229 9.37011 36.9971 8.9298C35.9113 8.50951 34.6705 8.21931 32.8492 8.13425C31.0329 8.05419 30.4525 8.03418 25.8143 8.03418Z" fill="white"/>
<path d="M25.8143 16.3398C20.9709 16.3398 17.0432 20.2676 17.0432 25.1109C17.0432 29.9543 20.9709 33.882 25.8143 33.882C30.6577 33.882 34.5854 29.9543 34.5854 25.1109C34.5854 20.2676 30.6577 16.3398 25.8143 16.3398ZM25.8143 30.8049C22.6721 30.8049 20.1204 28.2581 20.1204 25.1109C20.1204 21.9638 22.6721 19.417 25.8143 19.417C28.9565 19.417 31.5083 21.9638 31.5083 25.1109C31.5083 28.2581 28.9565 30.8049 25.8143 30.8049Z" fill="white"/>
<path d="M34.9307 18.0462C36.0636 18.0462 36.9821 17.1278 36.9821 15.9948C36.9821 14.8618 36.0636 13.9434 34.9307 13.9434C33.7977 13.9434 32.8792 14.8618 32.8792 15.9948C32.8792 17.1278 33.7977 18.0462 34.9307 18.0462Z" fill="white"/>
</g>
<defs>
<clipPath id="clip0_23_33">
<rect width="50.0348" height="50.0348" fill="white" transform="translate(0.796936 0.09375)"/>
</clipPath>
</defs>
</svg>
