<svg width="51" height="51" viewBox="0 0 51 51" fill="none" xmlns="http://www.w3.org/2000/svg">
<g clip-path="url(#clip0_23_29)">
<path d="M25.7691 50.1285C11.9545 50.1285 0.751709 38.9257 0.751709 25.1111C0.751709 11.2965 11.9545 0.09375 25.7691 0.09375C39.5837 0.09375 50.7865 11.2965 50.7865 25.1111C50.7865 38.9257 39.5837 50.1285 25.7691 50.1285Z" fill="#EE3135"/>
<path d="M32.2737 50.1288V30.7503H38.7782L39.7539 23.2001H32.2737V18.3767C32.2737 16.1902 32.8791 14.6992 36.0163 14.6992H40.014V7.9495C39.3236 7.85944 36.9469 7.6543 34.185 7.6543C28.421 7.6543 24.4732 11.1717 24.4732 17.6362V23.2051H17.9537V30.7554H24.4732V50.1288H32.2737Z" fill="white"/>
</g>
<defs>
<clipPath id="clip0_23_29">
<rect width="50.0348" height="50.0348" fill="white" transform="translate(0.751709 0.09375)"/>
</clipPath>
</defs>
</svg>
