<svg width="20" height="20" viewBox="0 0 20 20" fill="none" xmlns="http://www.w3.org/2000/svg">
<path d="M14.6833 8.95832C14.325 8.95832 14.0417 8.66666 14.0417 8.31666C14.0417 8.00832 13.7333 7.36666 13.2167 6.80832C12.7083 6.26666 12.15 5.94999 11.6833 5.94999C11.325 5.94999 11.0417 5.65832 11.0417 5.30832C11.0417 4.95832 11.3333 4.66666 11.6833 4.66666C12.5167 4.66666 13.3917 5.11666 14.1583 5.92499C14.875 6.68332 15.3333 7.62499 15.3333 8.30832C15.3333 8.66666 15.0417 8.95832 14.6833 8.95832Z" fill="#EE3135"/>
<path d="M17.6917 8.95832C17.3333 8.95832 17.05 8.66666 17.05 8.31666C17.05 5.35832 14.6417 2.95832 11.6917 2.95832C11.3333 2.95832 11.05 2.66666 11.05 2.31666C11.05 1.96666 11.3333 1.66666 11.6833 1.66666C15.35 1.66666 18.3333 4.64999 18.3333 8.31666C18.3333 8.66666 18.0417 8.95832 17.6917 8.95832Z" fill="#EE3135"/>
<path opacity="0.4" d="M9.82499 11.8417L7.09999 14.5667C6.79999 14.3 6.50832 14.025 6.22499 13.7417C5.36666 12.875 4.59166 11.9667 3.89999 11.0167C3.21666 10.0667 2.66666 9.11666 2.26666 8.17499C1.86666 7.22499 1.66666 6.31666 1.66666 5.44999C1.66666 4.88332 1.76666 4.34166 1.96666 3.84166C2.16666 3.33332 2.48332 2.86666 2.92499 2.44999C3.45832 1.92499 4.04166 1.66666 4.65832 1.66666C4.89166 1.66666 5.12499 1.71666 5.33332 1.81666C5.54999 1.91666 5.74166 2.06666 5.89166 2.28332L7.82499 5.00832C7.97499 5.21666 8.08332 5.40832 8.15832 5.59166C8.23332 5.76666 8.27499 5.94166 8.27499 6.09999C8.27499 6.29999 8.21666 6.49999 8.09999 6.69166C7.99166 6.88332 7.83332 7.08332 7.63332 7.28332L6.99999 7.94166C6.90832 8.03332 6.86666 8.14166 6.86666 8.27499C6.86666 8.34166 6.87499 8.39999 6.89166 8.46666C6.91666 8.53332 6.94166 8.58332 6.95832 8.63332C7.10832 8.90832 7.36666 9.26666 7.73332 9.69999C8.10832 10.1333 8.50832 10.575 8.94166 11.0167C9.24166 11.3083 9.53332 11.5917 9.82499 11.8417Z" fill="#EE3135"/>
<path d="M18.3083 15.275C18.3083 15.5083 18.2667 15.75 18.1833 15.9833C18.1583 16.05 18.1333 16.1167 18.1 16.1833C17.9583 16.4833 17.775 16.7667 17.5333 17.0333C17.125 17.4833 16.675 17.8083 16.1667 18.0167C16.1583 18.0167 16.15 18.025 16.1417 18.025C15.65 18.225 15.1167 18.3333 14.5417 18.3333C13.6917 18.3333 12.7833 18.1333 11.825 17.725C10.8667 17.3167 9.90833 16.7667 8.95833 16.075C8.63333 15.8333 8.30833 15.5917 8 15.3333L10.725 12.6083C10.9583 12.7833 11.1667 12.9167 11.3417 13.0083C11.3833 13.025 11.4333 13.05 11.4917 13.075C11.5583 13.1 11.625 13.1083 11.7 13.1083C11.8417 13.1083 11.95 13.0583 12.0417 12.9667L12.675 12.3417C12.8833 12.1333 13.0833 11.975 13.275 11.875C13.4667 11.7583 13.6583 11.7 13.8667 11.7C14.025 11.7 14.1917 11.7333 14.375 11.8083C14.5583 11.8833 14.75 11.9917 14.9583 12.1333L17.7167 14.0917C17.9333 14.2417 18.0833 14.4167 18.175 14.625C18.2583 14.8333 18.3083 15.0417 18.3083 15.275Z" fill="#EE3135"/>
</svg>
