<svg width="230" height="230" viewBox="0 0 230 230" fill="none" xmlns="http://www.w3.org/2000/svg">
<g clip-path="url(#clip0_176_387)">
<path d="M93.0542 108.196C91.2496 106.391 88.802 105.377 86.25 105.377C83.6979 105.377 81.2504 106.391 79.4458 108.196C77.6412 110 76.6274 112.448 76.6274 115C76.6274 117.552 77.6412 120 79.4458 121.804L108.196 150.554C109.091 151.442 110.153 152.145 111.321 152.622C112.488 153.099 113.739 153.341 115 153.333C116.312 153.292 117.601 152.981 118.788 152.421C119.975 151.86 121.034 151.062 121.9 150.075L188.983 73.4083C190.532 71.4852 191.279 69.0384 191.068 66.5781C190.857 64.1178 189.705 61.8339 187.851 60.2026C185.997 58.5713 183.585 57.7185 181.118 57.822C178.651 57.9256 176.319 58.9775 174.608 60.7583L115 129.758L93.0542 108.196Z" fill="#09B31A"/>
<path d="M201.25 105.417C198.708 105.417 196.271 106.426 194.474 108.224C192.676 110.021 191.667 112.458 191.667 115C191.667 135.333 183.589 154.834 169.212 169.212C154.834 183.589 135.333 191.667 115 191.667C99.8593 191.66 85.0595 187.17 72.467 178.763C59.8745 170.356 50.0531 158.409 44.2414 144.428C38.4296 130.447 36.8877 115.058 39.8101 100.202C42.7325 85.3462 49.9883 71.688 60.6626 60.95C67.761 53.7566 76.2228 48.0512 85.553 44.1678C94.8831 40.2843 104.894 38.3008 115 38.3333C121.128 38.3717 127.234 39.0787 133.208 40.4417C134.459 40.8284 135.775 40.9549 137.076 40.8135C138.377 40.672 139.635 40.2656 140.773 39.6192C141.911 38.9728 142.905 38.1002 143.693 37.0551C144.481 36.0101 145.046 34.8147 145.354 33.5427C145.662 32.2708 145.707 30.9492 145.485 29.6594C145.262 28.3697 144.778 27.1391 144.062 26.0436C143.346 24.948 142.414 24.0108 141.322 23.2895C140.229 22.5683 139.001 22.0784 137.713 21.85C130.268 20.0986 122.648 19.1984 115 19.1667C96.0667 19.265 77.5866 24.9696 61.8921 35.5604C46.1976 46.1513 33.9919 61.1538 26.8154 78.6747C19.6389 96.1956 17.8132 115.45 21.5687 134.007C25.3241 152.565 34.4925 169.594 47.9167 182.946C65.71 200.747 89.8309 210.775 115 210.833C140.417 210.833 164.792 200.737 182.764 182.764C200.737 164.792 210.833 140.417 210.833 115C210.833 112.458 209.824 110.021 208.027 108.224C206.229 106.426 203.792 105.417 201.25 105.417Z" fill="#09B31A"/>
</g>
<defs>
<clipPath id="clip0_176_387">
<rect width="230" height="230" fill="white"/>
</clipPath>
</defs>
</svg>
