<svg width="121" height="121" viewBox="0 0 121 121" fill="none" xmlns="http://www.w3.org/2000/svg">
<path opacity="0.4" d="M60.5 110.917C88.3444 110.917 110.917 88.3443 110.917 60.4999C110.917 32.6556 88.3444 10.0833 60.5 10.0833C32.6556 10.0833 10.0833 32.6556 10.0833 60.4999C10.0833 88.3443 32.6556 110.917 60.5 110.917Z" fill="#EE3135"/>
<path d="M79.2046 80.3136C78.5492 80.3136 77.8937 80.1624 77.2887 79.759L61.6596 70.432C57.7775 68.1128 54.9037 63.0207 54.9037 58.5336V37.8628C54.9037 35.7957 56.6179 34.0815 58.685 34.0815C60.7521 34.0815 62.4662 35.7957 62.4662 37.8628V58.5336C62.4662 60.3486 63.9787 63.0207 65.5417 63.9282L81.1708 73.2553C82.9858 74.314 83.5404 76.6332 82.4817 78.4482C81.7254 79.6582 80.465 80.3136 79.2046 80.3136Z" fill="#EE3135"/>
</svg>
