<svg width="21" height="21" viewBox="0 0 21 21" fill="none" xmlns="http://www.w3.org/2000/svg">
<path opacity="0.4" d="M14.5319 17.2419H6.19274C3.691 17.2419 2.02318 15.9911 2.02318 13.0724V7.23499C2.02318 4.3163 3.691 3.06543 6.19274 3.06543H14.5319C17.0336 3.06543 18.7014 4.3163 18.7014 7.23499V13.0724C18.7014 15.9911 17.0336 17.2419 14.5319 17.2419Z" fill="white"/>
<path d="M10.3623 10.879C9.66183 10.879 8.95301 10.6622 8.41097 10.2202L5.80082 8.13545C5.53396 7.91863 5.48393 7.52669 5.70075 7.25984C5.91757 6.99299 6.30951 6.94296 6.57636 7.15977L9.1865 9.24456C9.82027 9.75324 10.896 9.75324 11.5298 9.24456L14.1399 7.15977C14.4068 6.94296 14.8071 6.98465 15.0156 7.25984C15.2324 7.52669 15.1907 7.92697 14.9155 8.13545L12.3053 10.2202C11.7716 10.6622 11.0628 10.879 10.3623 10.879Z" fill="white"/>
</svg>
