<svg width="227" height="59" viewBox="0 0 227 59" fill="none" xmlns="http://www.w3.org/2000/svg">
<g clip-path="url(#clip0_15_94)">
<path d="M214.256 0.398651H39.8246C33.0063 0.398651 27.4789 5.93156 27.4789 12.7568V45.4459C27.4789 52.2711 33.0063 57.8041 39.8246 57.8041H214.256C221.074 57.8041 226.602 52.2711 226.602 45.4459V12.7568C226.602 5.93156 221.074 0.398651 214.256 0.398651Z" stroke="#F5F5F5"/>
<g filter="url(#filter0_i_15_94)">
<path d="M43.4229 0H4.36655C1.95497 0 0 1.96506 0 4.38908V54.132C0 56.556 1.95497 58.5211 4.36655 58.5211H43.4229C45.8345 58.5211 47.7895 56.556 47.7895 54.132V4.38908C47.7895 1.96506 45.8345 0 43.4229 0Z" fill="#EE3135"/>
<path d="M18.6791 21.2139H10.1886C9.65267 21.2139 9.21826 21.6506 9.21826 22.1893V49.0115C9.21826 49.5501 9.65267 49.9868 10.1886 49.9868H18.6791C19.215 49.9868 19.6495 49.5501 19.6495 49.0115V22.1893C19.6495 21.6506 19.215 21.2139 18.6791 21.2139Z" fill="white"/>
<path d="M33.2343 8.29053H24.7438C24.2079 8.29053 23.7734 8.72721 23.7734 9.26586V49.0114C23.7734 49.5501 24.2079 49.9868 24.7438 49.9868H33.2343C33.7702 49.9868 34.2047 49.5501 34.2047 49.0114V9.26586C34.2047 8.72721 33.7702 8.29053 33.2343 8.29053Z" fill="white"/>
<path d="M18.6791 8.53436H10.1886C9.65267 8.53436 9.21826 8.97104 9.21826 9.5097V16.8248C9.21826 17.3635 9.65267 17.8002 10.1886 17.8002H18.6791C19.215 17.8002 19.6495 17.3635 19.6495 16.8248V9.5097C19.6495 8.97104 19.215 8.53436 18.6791 8.53436Z" fill="white"/>
<path d="M40.5118 16.581H32.0213C31.4854 16.581 31.051 17.0177 31.051 17.5563V24.6276C31.051 25.1663 31.4854 25.603 32.0213 25.603H40.5118C41.0478 25.603 41.4822 25.1663 41.4822 24.6276V17.5563C41.4822 17.0177 41.0478 16.581 40.5118 16.581Z" fill="white"/>
</g>
<path d="M62.5755 32.6892V12.5973H66.2458V26.8625L77.0271 12.5973H80.4966V32.6892H76.8264V18.4526L66.045 32.6892H62.5755ZM100.232 12.5973H103.96V32.6892H100.232V12.5973ZM89.8522 32.6892H86.1246V12.5973H89.8522V32.6892ZM100.519 24.0784H89.5368V20.8924H100.519V24.0784ZM119.798 31.3976C117.275 31.3976 115.124 31.0531 113.346 30.3643C111.588 29.6754 110.24 28.6804 109.303 27.3792C108.367 26.0589 107.898 24.4706 107.898 22.6145C107.898 20.7202 108.367 19.1224 109.303 17.8212C110.24 16.52 111.588 15.525 113.346 14.8361C115.124 14.1472 117.275 13.8028 119.798 13.8028C119.836 13.8028 119.922 13.8028 120.056 13.8028C120.209 13.8028 120.352 13.8028 120.486 13.8028C120.639 13.8028 120.725 13.8028 120.744 13.8028C123.248 13.8028 125.38 14.1472 127.138 14.8361C128.897 15.525 130.235 16.5296 131.153 17.8499C132.07 19.1511 132.529 20.7393 132.529 22.6145C132.529 24.4515 132.07 26.0302 131.153 27.3505C130.254 28.6708 128.935 29.6754 127.196 30.3643C125.475 31.0531 123.372 31.3976 120.887 31.3976C120.849 31.3976 120.744 31.3976 120.572 31.3976C120.419 31.3976 120.257 31.3976 120.085 31.3976C119.932 31.3976 119.836 31.3976 119.798 31.3976ZM120.171 28.4986C120.209 28.4986 120.266 28.4986 120.343 28.4986C120.419 28.4986 120.467 28.4986 120.486 28.4986C122.34 28.4794 123.889 28.2498 125.131 27.8097C126.393 27.3696 127.339 26.719 127.97 25.8579C128.62 24.9777 128.945 23.887 128.945 22.5858C128.945 21.2846 128.62 20.2035 127.97 19.3424C127.32 18.4813 126.374 17.8307 125.131 17.3906C123.889 16.9505 122.359 16.7305 120.543 16.7305C120.524 16.7305 120.467 16.7305 120.371 16.7305C120.276 16.7305 120.209 16.7305 120.171 16.7305C118.278 16.7305 116.682 16.9505 115.382 17.3906C114.101 17.8116 113.136 18.4622 112.486 19.3424C111.855 20.2035 111.54 21.2942 111.54 22.6145C111.54 23.9349 111.874 25.0351 112.543 25.9153C113.232 26.7764 114.216 27.427 115.497 27.8671C116.778 28.2881 118.335 28.4986 120.171 28.4986ZM118.508 33.4929V11.7936H121.948V33.4929H118.508ZM145.762 32.9762C144.194 32.9762 142.751 32.7179 141.432 32.2012C140.113 31.6846 138.966 30.967 137.991 30.0485C137.016 29.1109 136.261 28.0202 135.726 26.7764C135.191 25.5135 134.923 24.1358 134.923 22.6432C134.923 21.1507 135.191 19.7825 135.726 18.5387C136.261 17.2758 137.016 16.1851 137.991 15.2666C138.966 14.329 140.113 13.6019 141.432 13.0852C142.751 12.5686 144.185 12.3103 145.733 12.3103C147.301 12.3103 148.734 12.5686 150.034 13.0852C151.353 13.6019 152.5 14.329 153.475 15.2666C154.45 16.1851 155.205 17.2758 155.74 18.5387C156.276 19.7825 156.543 21.1507 156.543 22.6432C156.543 24.1358 156.276 25.5135 155.74 26.7764C155.205 28.0393 154.45 29.13 153.475 30.0485C152.5 30.967 151.353 31.6846 150.034 32.2012C148.734 32.7179 147.31 32.9762 145.762 32.9762ZM145.733 29.7041C146.746 29.7041 147.683 29.5319 148.543 29.1874C149.403 28.843 150.149 28.3551 150.78 27.7236C151.411 27.073 151.898 26.3267 152.242 25.4848C152.605 24.6237 152.787 23.6765 152.787 22.6432C152.787 21.6099 152.605 20.6723 152.242 19.8304C151.898 18.9693 151.411 18.223 150.78 17.5916C150.149 16.941 149.403 16.4434 148.543 16.099C147.683 15.7546 146.746 15.5824 145.733 15.5824C144.72 15.5824 143.783 15.7546 142.923 16.099C142.082 16.4434 141.337 16.941 140.687 17.5916C140.056 18.223 139.559 18.9693 139.196 19.8304C138.852 20.6723 138.679 21.6099 138.679 22.6432C138.679 23.6574 138.852 24.595 139.196 25.4561C139.559 26.3172 140.056 27.073 140.687 27.7236C141.317 28.3551 142.063 28.843 142.923 29.1874C143.783 29.5319 144.72 29.7041 145.733 29.7041ZM164.6 32.6892V14.8361L165.489 15.7546H157.976V12.5973H174.951V15.7546H167.438L168.299 14.8361V32.6892H164.6ZM181.606 20.9498H191.585V24.021H181.606V20.9498ZM181.893 29.5606H193.219V32.6892H178.166V12.5973H192.818V15.7259H181.893V29.5606ZM210.65 32.6892L203.855 22.9016L206.865 21.0359L214.865 32.6892H210.65ZM197.374 32.6892V12.5973H201.045V32.6892H197.374ZM199.926 24.2219V21.0072H206.693V24.2219H199.926ZM207.21 23.0738L203.797 22.6145L210.65 12.5973H214.607L207.21 23.0738Z" fill="#2C3E50"/>
<path d="M66.2171 50.2935C65.5544 50.2935 64.9597 50.149 64.433 49.8598C63.9147 49.5622 63.5069 49.1582 63.2096 48.6479C62.9122 48.1291 62.7635 47.5381 62.7635 46.8747C62.7635 46.2028 62.9122 45.6118 63.2096 45.1015C63.5069 44.5912 63.9147 44.1916 64.433 43.9024C64.9597 43.6132 65.5544 43.4686 66.2171 43.4686C66.7864 43.4686 67.3003 43.5792 67.7591 43.8003C68.2179 44.0214 68.5789 44.3531 68.8423 44.7953L68.1669 45.2546C67.9375 44.9144 67.6529 44.6636 67.3131 44.5019C66.9732 44.3403 66.6036 44.2596 66.2044 44.2596C65.7286 44.2596 65.2995 44.3702 64.9172 44.5912C64.5349 44.8039 64.2333 45.1057 64.0124 45.497C63.7915 45.8882 63.6811 46.3474 63.6811 46.8747C63.6811 47.402 63.7915 47.8612 64.0124 48.2524C64.2333 48.6437 64.5349 48.9498 64.9172 49.1709C65.2995 49.3836 65.7286 49.4898 66.2044 49.4898C66.6036 49.4898 66.9732 49.4091 67.3131 49.2475C67.6529 49.0858 67.9375 48.8392 68.1669 48.5076L68.8423 48.9668C68.5789 49.4005 68.2179 49.7322 67.7591 49.9618C67.3003 50.1829 66.7864 50.2935 66.2171 50.2935ZM73.3497 50.2935C72.653 50.2935 72.0413 50.149 71.5146 49.8598C70.9878 49.5622 70.5757 49.1582 70.2784 48.6479C69.9811 48.1291 69.8324 47.5381 69.8324 46.8747C69.8324 46.2114 69.9726 45.6245 70.2529 45.1143C70.5418 44.604 70.9326 44.2043 71.4254 43.9151C71.9266 43.6175 72.4873 43.4686 73.1076 43.4686C73.7362 43.4686 74.2927 43.6132 74.777 43.9024C75.2698 44.183 75.6563 44.5827 75.9367 45.1015C76.217 45.6118 76.3572 46.2028 76.3572 46.8747C76.3572 46.9172 76.353 46.964 76.3445 47.015C76.3445 47.0575 76.3445 47.1043 76.3445 47.1554H70.5205V46.4792H75.8602L75.5034 46.7471C75.5034 46.2624 75.3972 45.8329 75.1848 45.4587C74.9809 45.076 74.7005 44.7784 74.3437 44.5657C73.9869 44.3531 73.5749 44.2468 73.1076 44.2468C72.6488 44.2468 72.2367 44.3531 71.8714 44.5657C71.506 44.7784 71.2215 45.076 71.0176 45.4587C70.8137 45.8414 70.7117 46.2794 70.7117 46.7726V46.913C70.7117 47.4232 70.8222 47.874 71.043 48.2652C71.2724 48.6479 71.5868 48.9498 71.9861 49.1709C72.3939 49.3836 72.8569 49.4898 73.3752 49.4898C73.783 49.4898 74.1611 49.4175 74.5094 49.273C74.8662 49.1284 75.1721 48.9073 75.4269 48.6096L75.9367 49.1964C75.6394 49.5536 75.2655 49.8257 74.8152 50.0129C74.3734 50.2 73.8849 50.2935 73.3497 50.2935ZM81.814 50.2935C81.2357 50.2935 80.7132 50.1617 80.2465 49.8981C79.779 49.6259 79.4051 49.2389 79.1247 48.7372C78.8529 48.2269 78.7169 47.6061 78.7169 46.8747C78.7169 46.1433 78.8529 45.5267 79.1247 45.025C79.3966 44.5147 79.7662 44.1278 80.2338 43.8641C80.7005 43.6004 81.2278 43.4686 81.814 43.4686C82.4512 43.4686 83.0199 43.6132 83.5217 43.9024C84.0314 44.183 84.4305 44.5827 84.7196 45.1015C85.0079 45.6118 85.1529 46.2028 85.1529 46.8747C85.1529 47.555 85.0079 48.1504 84.7196 48.6606C84.4305 49.1709 84.0314 49.5706 83.5217 49.8598C83.0199 50.149 82.4512 50.2935 81.814 50.2935ZM78.3601 52.7045V43.5324H79.2267V45.548L79.1375 46.8875L79.2649 48.2397V52.7045H78.3601ZM81.7503 49.4898C82.2258 49.4898 82.6503 49.3836 83.0247 49.1709C83.3982 48.9498 83.6953 48.6437 83.9167 48.2524C84.1374 47.8527 84.2481 47.3935 84.2481 46.8747C84.2481 46.3559 84.1374 45.901 83.9167 45.5097C83.6953 45.1185 83.3982 44.8123 83.0247 44.5912C82.6503 44.3702 82.2258 44.2596 81.7503 44.2596C81.274 44.2596 80.8455 44.3702 80.4631 44.5912C80.0888 44.8123 79.7917 45.1185 79.5708 45.5097C79.3584 45.901 79.2522 46.3559 79.2522 46.8747C79.2522 47.3935 79.3584 47.8527 79.5708 48.2524C79.7917 48.6437 80.0888 48.9498 80.4631 49.1709C80.8455 49.3836 81.274 49.4898 81.7503 49.4898ZM87.0963 50.2297V43.5324H90.0529C90.8096 43.5324 91.4038 43.677 91.837 43.9662C92.2791 44.2553 92.4997 44.6805 92.4997 45.2418C92.4997 45.7862 92.2918 46.2071 91.8753 46.5048C91.4595 46.7939 90.9115 46.9385 90.2313 46.9385L90.4097 46.6706C91.2086 46.6706 91.7948 46.8195 92.1684 47.1171C92.5427 47.4147 92.7291 47.8442 92.7291 48.4055C92.7291 48.9838 92.5172 49.4346 92.0919 49.7577C91.6762 50.0724 91.0262 50.2297 90.1421 50.2297H87.0963ZM87.9757 49.5154H90.1039C90.6734 49.5154 91.1027 49.4261 91.391 49.2475C91.6889 49.0603 91.837 48.7627 91.837 48.3545C91.837 47.9463 91.7056 47.6486 91.442 47.4615C91.1791 47.2744 90.7626 47.1809 90.1931 47.1809H87.9757V49.5154ZM87.9757 46.5048H89.9892C90.5077 46.5048 90.9028 46.4069 91.1744 46.2114C91.4547 46.0158 91.5949 45.7308 91.5949 45.3566C91.5949 44.9825 91.4547 44.7018 91.1744 44.5147C90.9028 44.3276 90.5077 44.2341 89.9892 44.2341H87.9757V46.5048ZM94.8502 50.2297V43.5324H95.755V48.852L100.228 43.5324H101.031V50.2297H100.126V44.8974L95.6658 50.2297H94.8502ZM106.427 50.2935C105.764 50.2935 105.17 50.149 104.643 49.8598C104.125 49.5622 103.717 49.1582 103.42 48.6479C103.123 48.1291 102.974 47.5381 102.974 46.8747C102.974 46.2028 103.123 45.6118 103.42 45.1015C103.717 44.5912 104.125 44.1916 104.643 43.9024C105.17 43.6132 105.764 43.4686 106.427 43.4686C106.997 43.4686 107.51 43.5792 107.969 43.8003C108.428 44.0214 108.79 44.3531 109.052 44.7953L108.377 45.2546C108.148 44.9144 107.863 44.6636 107.523 44.5019C107.184 44.3403 106.814 44.2596 106.414 44.2596C105.939 44.2596 105.51 44.3702 105.127 44.5912C104.745 44.8039 104.444 45.1057 104.222 45.497C104.002 45.8882 103.891 46.3474 103.891 46.8747C103.891 47.402 104.002 47.8612 104.222 48.2524C104.444 48.6437 104.745 48.9498 105.127 49.1709C105.51 49.3836 105.939 49.4898 106.414 49.4898C106.814 49.4898 107.184 49.4091 107.523 49.2475C107.863 49.0858 108.148 48.8392 108.377 48.5076L109.052 48.9668C108.79 49.4005 108.428 49.7322 107.969 49.9618C107.51 50.1829 106.997 50.2935 106.427 50.2935ZM110.805 50.2297V43.5324H111.709V46.492H115.928V43.5324H116.833V50.2297H115.928V47.2702H111.709V50.2297H110.805ZM125.929 50.2297V43.5324H126.834V50.2297H125.929ZM122.221 45.8924C123.062 45.901 123.703 46.088 124.145 46.4537C124.587 46.8194 124.808 47.3467 124.808 48.0356C124.808 48.7499 124.57 49.2985 124.094 49.6812C123.619 50.0639 122.938 50.251 122.055 50.2425L119.404 50.2297V43.5324H120.309V45.8669L122.221 45.8924ZM121.991 49.5536C122.62 49.5622 123.091 49.4388 123.406 49.1837C123.729 48.92 123.89 48.5373 123.89 48.0356C123.89 47.5338 123.733 47.1681 123.419 46.9385C123.104 46.7003 122.629 46.5771 121.991 46.5685L120.309 46.543V49.5281L121.991 49.5536ZM129.41 50.2297V43.5324H130.315V48.852L134.788 43.5324H135.591V50.2297H134.686V44.8974L130.226 50.2297H129.41ZM132.443 42.5629C131.882 42.5629 131.428 42.4226 131.079 42.1419C130.74 41.8528 130.562 41.4403 130.544 40.9045H131.194C131.203 41.2447 131.321 41.5126 131.551 41.7082C131.78 41.9038 132.078 42.0016 132.443 42.0016C132.809 42.0016 133.106 41.9038 133.335 41.7082C133.573 41.5126 133.697 41.2447 133.705 40.9045H134.355C134.347 41.4403 134.168 41.8528 133.819 42.1419C133.471 42.4226 133.012 42.5629 132.443 42.5629ZM141.52 50.2297V43.5324H142.425V49.4388H146.515V43.5324H147.42V50.2297H141.52ZM147.65 51.8498V50.1532L147.879 50.2297H146.515V49.4388H148.503V51.8498H147.65ZM153.098 50.2935C152.401 50.2935 151.79 50.149 151.263 49.8598C150.737 49.5622 150.324 49.1582 150.027 48.6479C149.73 48.1291 149.581 47.5381 149.581 46.8747C149.581 46.2114 149.721 45.6245 150.002 45.1143C150.291 44.604 150.681 44.2043 151.174 43.9151C151.675 43.6175 152.236 43.4686 152.856 43.4686C153.485 43.4686 154.041 43.6132 154.526 43.9024C155.019 44.183 155.405 44.5827 155.685 45.1015C155.966 45.6118 156.106 46.2028 156.106 46.8747C156.106 46.9172 156.102 46.964 156.093 47.015C156.093 47.0575 156.093 47.1043 156.093 47.1554H150.269V46.4792H155.609L155.252 46.7471C155.252 46.2624 155.146 45.8329 154.933 45.4587C154.73 45.076 154.449 44.7784 154.092 44.5657C153.736 44.3531 153.324 44.2468 152.856 44.2468C152.397 44.2468 151.986 44.3531 151.62 44.5657C151.254 44.7784 150.97 45.076 150.766 45.4587C150.562 45.8414 150.46 46.2794 150.46 46.7726V46.913C150.46 47.4232 150.571 47.874 150.792 48.2652C151.021 48.6479 151.336 48.9498 151.735 49.1709C152.143 49.3836 152.605 49.4898 153.124 49.4898C153.532 49.4898 153.91 49.4175 154.258 49.273C154.615 49.1284 154.921 48.9073 155.176 48.6096L155.685 49.1964C155.388 49.5536 155.014 49.8257 154.564 50.0129C154.122 50.2 153.634 50.2935 153.098 50.2935ZM158.109 50.2297V43.5324H159.014V46.492H163.232V43.5324H164.137V50.2297H163.232V47.2702H159.014V50.2297H158.109ZM167.983 50.2297V44.081L168.213 44.3234H165.447V43.5324H171.424V44.3234H168.659L168.888 44.081V50.2297H167.983ZM176.185 50.2935C175.608 50.2935 175.086 50.1617 174.618 49.8981C174.15 49.6259 173.777 49.2389 173.497 48.7372C173.225 48.2269 173.089 47.6061 173.089 46.8747C173.089 46.1433 173.225 45.5267 173.497 45.025C173.768 44.5147 174.138 44.1278 174.605 43.8641C175.073 43.6004 175.599 43.4686 176.185 43.4686C176.823 43.4686 177.392 43.6132 177.893 43.9024C178.403 44.183 178.802 44.5827 179.091 45.1015C179.38 45.6118 179.524 46.2028 179.524 46.8747C179.524 47.555 179.38 48.1504 179.091 48.6606C178.802 49.1709 178.403 49.5706 177.893 49.8598C177.392 50.149 176.823 50.2935 176.185 50.2935ZM172.732 52.7045V43.5324H173.598V45.548L173.509 46.8875L173.637 48.2397V52.7045H172.732ZM176.122 49.4898C176.597 49.4898 177.023 49.3836 177.396 49.1709C177.77 48.9498 178.068 48.6437 178.288 48.2524C178.509 47.8527 178.62 47.3935 178.62 46.8747C178.62 46.3559 178.509 45.901 178.288 45.5097C178.068 45.1185 177.77 44.8123 177.396 44.5912C177.023 44.3702 176.597 44.2596 176.122 44.2596C175.646 44.2596 175.217 44.3702 174.835 44.5912C174.461 44.8123 174.163 45.1185 173.943 45.5097C173.73 45.901 173.624 46.3559 173.624 46.8747C173.624 47.3935 173.73 47.8527 173.943 48.2524C174.163 48.6437 174.461 48.9498 174.835 49.1709C175.217 49.3836 175.646 49.4898 176.122 49.4898Z" fill="#2C3E50"/>
</g>
<defs>
<filter id="filter0_i_15_94" x="0" y="0" width="47.7895" height="62.5211" filterUnits="userSpaceOnUse" color-interpolation-filters="sRGB">
<feFlood flood-opacity="0" result="BackgroundImageFix"/>
<feBlend mode="normal" in="SourceGraphic" in2="BackgroundImageFix" result="shape"/>
<feColorMatrix in="SourceAlpha" type="matrix" values="0 0 0 0 0 0 0 0 0 0 0 0 0 0 0 0 0 0 127 0" result="hardAlpha"/>
<feOffset dy="4"/>
<feGaussianBlur stdDeviation="6"/>
<feComposite in2="hardAlpha" operator="arithmetic" k2="-1" k3="1"/>
<feColorMatrix type="matrix" values="0 0 0 0 0.933333 0 0 0 0 0.192157 0 0 0 0 0.207843 0 0 0 0.25 0"/>
<feBlend mode="normal" in2="shape" result="effect1_innerShadow_15_94"/>
</filter>
<clipPath id="clip0_15_94">
<rect width="227" height="59" fill="white"/>
</clipPath>
</defs>
</svg>
