<svg width="132" height="132" viewBox="0 0 132 132" fill="none" xmlns="http://www.w3.org/2000/svg">
<path opacity="0.4" d="M49.5 11C35.09 11 23.375 22.715 23.375 37.125C23.375 51.26 34.43 62.7 48.84 63.195C49.28 63.14 49.72 63.14 50.05 63.195C50.16 63.195 50.215 63.195 50.325 63.195C50.38 63.195 50.38 63.195 50.435 63.195C64.515 62.7 75.57 51.26 75.625 37.125C75.625 22.715 63.91 11 49.5 11Z" fill="#EE3135"/>
<path d="M77.44 77.8251C62.095 67.5951 37.07 67.5951 21.615 77.8251C14.63 82.5001 10.78 88.8251 10.78 95.5901C10.78 102.355 14.63 108.625 21.56 113.245C29.26 118.415 39.38 121 49.5 121C59.62 121 69.74 118.415 77.44 113.245C84.37 108.57 88.22 102.3 88.22 95.4801C88.165 88.7151 84.37 82.4451 77.44 77.8251Z" fill="#EE3135"/>
<path opacity="0.4" d="M109.945 40.3701C110.825 51.0401 103.235 60.3901 92.73 61.6551C92.675 61.6551 92.675 61.6551 92.62 61.6551H92.455C92.125 61.6551 91.795 61.6551 91.52 61.7651C86.185 62.0401 81.29 60.3351 77.605 57.2001C83.27 52.1401 86.515 44.5501 85.855 36.3001C85.47 31.8451 83.93 27.7751 81.62 24.3101C83.71 23.2651 86.13 22.6051 88.605 22.3851C99.385 21.4501 109.01 29.4801 109.945 40.3701Z" fill="#EE3135"/>
<path d="M120.945 91.245C120.505 96.58 117.095 101.2 111.375 104.335C105.875 107.36 98.945 108.79 92.07 108.625C96.03 105.05 98.34 100.595 98.78 95.865C99.33 89.045 96.085 82.5 89.595 77.275C85.91 74.36 81.62 72.05 76.945 70.345C89.1 66.825 104.39 69.19 113.795 76.78C118.855 80.85 121.44 85.965 120.945 91.245Z" fill="#EE3135"/>
</svg>
