<svg width="132" height="132" viewBox="0 0 132 132" fill="none" xmlns="http://www.w3.org/2000/svg">
<path opacity="0.4" d="M11 70.8399V61.1599C11 55.4399 15.675 50.7099 21.45 50.7099C31.405 50.7099 35.475 43.6699 30.47 35.0349C27.61 30.0849 29.315 23.6499 34.32 20.7899L43.835 15.3449C48.18 12.7599 53.79 14.2999 56.375 18.6449L56.98 19.6899C61.93 28.3249 70.07 28.3249 75.075 19.6899L75.68 18.6449C78.265 14.2999 83.875 12.7599 88.22 15.3449L97.735 20.7899C102.74 23.6499 104.445 30.0849 101.585 35.0349C96.58 43.6699 100.65 50.7099 110.605 50.7099C116.325 50.7099 121.055 55.3849 121.055 61.1599V70.8399C121.055 76.5599 116.38 81.2899 110.605 81.2899C100.65 81.2899 96.58 88.3299 101.585 96.9649C104.445 101.97 102.74 108.35 97.735 111.21L88.22 116.655C83.875 119.24 78.265 117.7 75.68 113.355L75.075 112.31C70.125 103.675 61.985 103.675 56.98 112.31L56.375 113.355C53.79 117.7 48.18 119.24 43.835 116.655L34.32 111.21C29.315 108.35 27.61 101.915 30.47 96.9649C35.475 88.3299 31.405 81.2899 21.45 81.2899C15.675 81.2899 11 76.5599 11 70.8399Z" fill="#EE3135"/>
<path d="M66 83.875C75.8721 83.875 83.875 75.8721 83.875 66C83.875 56.1279 75.8721 48.125 66 48.125C56.1279 48.125 48.125 56.1279 48.125 66C48.125 75.8721 56.1279 83.875 66 83.875Z" fill="#EE3135"/>
</svg>
