<svg width="21" height="21" viewBox="0 0 21 21" fill="none" xmlns="http://www.w3.org/2000/svg">
<path d="M15.0489 9.05686C14.6903 9.05686 14.4068 8.76499 14.4068 8.41474C14.4068 8.1062 14.0982 7.46408 13.5812 6.90536C13.0725 6.36332 12.5138 6.04643 12.0468 6.04643C11.6882 6.04643 11.4047 5.75456 11.4047 5.40432C11.4047 5.05408 11.6966 4.76221 12.0468 4.76221C12.8807 4.76221 13.7563 5.21252 14.5235 6.02142C15.2407 6.78028 15.6993 7.7226 15.6993 8.40641C15.6993 8.76499 15.4075 9.05686 15.0489 9.05686Z" fill="white"/>
<path d="M18.0593 9.0565C17.7007 9.0565 17.4172 8.76463 17.4172 8.41439C17.4172 5.454 15.0072 3.05233 12.0552 3.05233C11.6966 3.05233 11.413 2.76046 11.413 2.41022C11.413 2.05997 11.6966 1.75977 12.0468 1.75977C15.716 1.75977 18.7014 4.74517 18.7014 8.41439C18.7014 8.76463 18.4096 9.0565 18.0593 9.0565Z" fill="white"/>
<path opacity="0.4" d="M10.1872 11.9418L7.46029 14.6687C7.16008 14.4019 6.86821 14.1267 6.58468 13.8432C5.72575 12.9759 4.95021 12.0669 4.25806 11.1163C3.57426 10.1656 3.02387 9.21495 2.6236 8.27262C2.22332 7.32196 2.02318 6.413 2.02318 5.54573C2.02318 4.97867 2.12325 4.43663 2.32339 3.93628C2.52353 3.42759 2.84041 2.9606 3.28239 2.54364C3.81609 2.01828 4.39983 1.75977 5.01692 1.75977C5.25042 1.75977 5.48392 1.8098 5.69239 1.90987C5.90921 2.00994 6.10101 2.16004 6.25112 2.37686L8.18579 5.10376C8.3359 5.31223 8.44431 5.50403 8.51936 5.68749C8.59441 5.86262 8.63611 6.03774 8.63611 6.19618C8.63611 6.39632 8.57773 6.59646 8.46098 6.78826C8.35258 6.98006 8.19413 7.1802 7.99399 7.38034L7.36022 8.03913C7.26849 8.13086 7.22679 8.23927 7.22679 8.37269C7.22679 8.43941 7.23513 8.49778 7.25181 8.56449C7.27683 8.63121 7.30185 8.68124 7.31852 8.73128C7.46863 9.00647 7.72714 9.36505 8.09406 9.79869C8.46932 10.2323 8.8696 10.6743 9.30324 11.1163C9.60344 11.4081 9.89531 11.6917 10.1872 11.9418Z" fill="white"/>
<path d="M18.6764 15.3783C18.6764 15.6118 18.6347 15.8536 18.5513 16.0871C18.5263 16.1538 18.5013 16.2205 18.4679 16.2872C18.3262 16.5874 18.1427 16.871 17.9009 17.1378C17.4923 17.5881 17.0419 17.9134 16.5333 18.1218C16.5249 18.1218 16.5166 18.1302 16.5082 18.1302C16.0162 18.3303 15.4825 18.4387 14.9071 18.4387C14.0565 18.4387 13.1476 18.2386 12.1886 17.83C11.2296 17.4214 10.2706 16.871 9.31992 16.1788C8.99469 15.937 8.66946 15.6952 8.36092 15.4366L11.0878 12.7097C11.3213 12.8849 11.5298 13.0183 11.7049 13.11C11.7466 13.1267 11.7966 13.1517 11.855 13.1767C11.9217 13.2018 11.9884 13.2101 12.0635 13.2101C12.2053 13.2101 12.3137 13.1601 12.4054 13.0683L13.0392 12.4429C13.2476 12.2344 13.4478 12.076 13.6396 11.9759C13.8314 11.8592 14.0232 11.8008 14.2317 11.8008C14.3901 11.8008 14.5569 11.8341 14.7403 11.9092C14.9238 11.9842 15.1156 12.0927 15.3241 12.2344L18.0843 14.1941C18.3012 14.3442 18.4513 14.5193 18.543 14.7278C18.6264 14.9363 18.6764 15.1448 18.6764 15.3783Z" fill="white"/>
</svg>
