<svg width="51" height="51" viewBox="0 0 51 51" fill="none" xmlns="http://www.w3.org/2000/svg">
<g clip-path="url(#clip0_23_39)">
<path d="M25.8658 50.1285C39.6825 50.1285 50.8832 38.9279 50.8832 25.1111C50.8832 11.2944 39.6825 0.09375 25.8658 0.09375C12.0491 0.09375 0.848389 11.2944 0.848389 25.1111C0.848389 38.9279 12.0491 50.1285 25.8658 50.1285Z" fill="#EE3135"/>
<path d="M38.0422 14.4883L33.5762 37.0137C33.5762 37.0137 32.9508 38.5773 31.2309 37.8248L20.921 29.9189L17.1684 28.111L10.8554 25.9904C10.8554 25.9904 9.8879 25.6484 9.79018 24.8959C9.69246 24.1434 10.8847 23.7428 10.8847 23.7428L35.9803 13.902C35.9803 13.8922 38.0422 12.9833 38.0422 14.4883Z" fill="white"/>
<path d="M20.1196 36.7599C20.1196 36.7599 19.8167 36.7306 19.4453 35.5482C19.074 34.3657 17.1683 28.1113 17.1683 28.1113L32.3254 18.4855C32.3254 18.4855 33.2049 17.9578 33.1658 18.4855C33.1658 18.4855 33.3221 18.5832 32.8531 19.0132C32.384 19.453 20.9503 29.7336 20.9503 29.7336" fill="#D2E4F0"/>
<path d="M24.869 32.9484L20.7939 36.6717C20.7939 36.6717 20.4714 36.916 20.1294 36.7597L20.9112 29.8506" fill="#B5CFE4"/>
</g>
<defs>
<clipPath id="clip0_23_39">
<rect width="50.0348" height="50.0348" fill="white" transform="translate(0.848389 0.09375)"/>
</clipPath>
</defs>
</svg>
