<svg width="132" height="132" viewBox="0 0 132 132" fill="none" xmlns="http://www.w3.org/2000/svg">
<path opacity="0.4" d="M59.125 13.475C62.92 10.23 69.135 10.23 72.985 13.475L81.675 20.955C83.325 22.385 86.405 23.54 88.605 23.54H97.955C103.785 23.54 108.57 28.325 108.57 34.155V43.505C108.57 45.65 109.725 48.785 111.155 50.435L118.635 59.125C121.88 62.92 121.88 69.135 118.635 72.985L111.155 81.675C109.725 83.325 108.57 86.405 108.57 88.605V97.955C108.57 103.785 103.785 108.57 97.955 108.57H88.605C86.46 108.57 83.325 109.725 81.675 111.155L72.985 118.635C69.19 121.88 62.975 121.88 59.125 118.635L50.435 111.155C48.785 109.725 45.705 108.57 43.505 108.57H33.99C28.16 108.57 23.375 103.785 23.375 97.955V88.55C23.375 86.405 22.22 83.325 20.845 81.675L13.42 72.93C10.23 69.135 10.23 62.975 13.42 59.18L20.845 50.435C22.22 48.785 23.375 45.705 23.375 43.56V34.1C23.375 28.27 28.16 23.485 33.99 23.485H43.505C45.65 23.485 48.785 22.33 50.435 20.9L59.125 13.475Z" fill="#EE3135"/>
<path d="M59.345 83.435C58.245 83.435 57.2 82.995 56.43 82.225L43.12 68.915C41.525 67.32 41.525 64.68 43.12 63.085C44.715 61.49 47.355 61.49 48.95 63.085L59.345 73.48L82.995 49.83C84.59 48.235 87.23 48.235 88.825 49.83C90.42 51.425 90.42 54.065 88.825 55.66L62.26 82.225C61.49 82.995 60.445 83.435 59.345 83.435Z" fill="#EE3135"/>
</svg>
